<svg width="18" height="18" viewBox="0 0 18 18" fill="none" xmlns="http://www.w3.org/2000/svg">
<mask id="path-1-inside-1_22_314" fill="white">
<path d="M6.57408 14.8345C6.11867 14.8345 5.74182 14.6621 5.38072 14.1994L5.09021 14.4987C5.48281 15.016 5.9773 15.2792 6.58984 15.2792C7.60275 15.2792 8.25436 14.5259 8.25436 13.4736C8.25436 12.521 7.72836 12.0037 7.06898 11.9675C7.65778 11.8496 8.10521 11.3687 8.10521 10.552C8.10521 9.70822 7.57922 9.04598 6.6684 9.04598C6.09535 9.04598 5.64771 9.27272 5.23956 9.72642L5.48302 10.0532C5.85987 9.65384 6.20521 9.4907 6.64487 9.4907C7.24942 9.4907 7.6498 9.908 7.6498 10.5795C7.6498 11.4051 7.12381 11.7862 6.57429 11.7862H6.32305L6.26025 12.2127H6.60559C7.31223 12.2127 7.7834 12.5666 7.7834 13.483C7.78319 14.281 7.34333 14.8345 6.57408 14.8345Z"/>
</mask>
<path d="M6.57408 14.8345C6.11867 14.8345 5.74182 14.6621 5.38072 14.1994L5.09021 14.4987C5.48281 15.016 5.9773 15.2792 6.58984 15.2792C7.60275 15.2792 8.25436 14.5259 8.25436 13.4736C8.25436 12.521 7.72836 12.0037 7.06898 11.9675C7.65778 11.8496 8.10521 11.3687 8.10521 10.552C8.10521 9.70822 7.57922 9.04598 6.6684 9.04598C6.09535 9.04598 5.64771 9.27272 5.23956 9.72642L5.48302 10.0532C5.85987 9.65384 6.20521 9.4907 6.64487 9.4907C7.24942 9.4907 7.6498 9.908 7.6498 10.5795C7.6498 11.4051 7.12381 11.7862 6.57429 11.7862H6.32305L6.26025 12.2127H6.60559C7.31223 12.2127 7.7834 12.5666 7.7834 13.483C7.78319 14.281 7.34333 14.8345 6.57408 14.8345Z" fill="black"/>
<path d="M5.38072 14.1994L7.74574 12.3537L5.62675 9.63853L3.22798 12.11L5.38072 14.1994ZM5.09021 14.4987L2.93747 12.4093L1.14214 14.259L2.7005 16.3124L5.09021 14.4987ZM7.06898 11.9675L6.47959 9.02599L6.90465 14.963L7.06898 11.9675ZM5.23956 9.72642L3.00923 7.72003L1.36513 9.54763L2.83392 11.5189L5.23956 9.72642ZM5.48302 10.0532L3.07738 11.8456L5.21236 14.711L7.66486 12.1122L5.48302 10.0532ZM6.32305 11.7862V8.78619H3.73247L3.35506 11.3491L6.32305 11.7862ZM6.26025 12.2127L3.29225 11.7756L2.78612 15.2127H6.26025V12.2127ZM7.7834 13.483L10.7834 13.4838V13.483H7.7834ZM6.57408 14.8345V11.8345C6.74525 11.8345 7.02124 11.872 7.3139 12.0225C7.59085 12.1649 7.72585 12.3282 7.74574 12.3537L5.38072 14.1994L3.01571 16.0451C3.3967 16.5333 3.90067 17.0141 4.57017 17.3584C5.25538 17.7107 5.9475 17.8345 6.57408 17.8345V14.8345ZM5.38072 14.1994L3.22798 12.11L2.93747 12.4093L5.09021 14.4987L7.24295 16.5882L7.53347 16.2888L5.38072 14.1994ZM5.09021 14.4987L2.7005 16.3124C3.60147 17.4995 4.94578 18.2792 6.58984 18.2792V15.2792V12.2792C6.73002 12.2792 6.93611 12.3137 7.14858 12.4249C7.35238 12.5316 7.45539 12.6528 7.47992 12.6851L5.09021 14.4987ZM6.58984 15.2792V18.2792C7.8844 18.2792 9.12921 17.7751 10.0261 16.7842C10.8966 15.8225 11.2544 14.6125 11.2544 13.4736H8.25436H5.25436C5.25436 13.387 5.28634 13.0798 5.57775 12.7578C5.89564 12.4066 6.30818 12.2792 6.58984 12.2792V15.2792ZM8.25436 13.4736H11.2544C11.2544 12.4494 10.966 11.3458 10.1995 10.4395C9.41765 9.51517 8.33155 9.03228 7.23331 8.97203L7.06898 11.9675L6.90465 14.963C6.46579 14.9389 5.97238 14.7328 5.61839 14.3143C5.27974 13.9139 5.25436 13.5452 5.25436 13.4736H8.25436ZM7.06898 11.9675L7.65837 14.9091C8.5943 14.7215 9.50664 14.2191 10.1707 13.3703C10.8336 12.5231 11.1052 11.5176 11.1052 10.552H8.10521H5.10521C5.10521 10.4031 5.15315 10.0464 5.4451 9.67321C5.73823 9.29853 6.13246 9.09555 6.47959 9.02599L7.06898 11.9675ZM8.10521 10.552H11.1052C11.1052 9.51861 10.7795 8.38293 9.95245 7.46926C9.09147 6.51815 7.89875 6.04598 6.6684 6.04598V9.04598V12.046C6.34887 12.046 5.87456 11.9049 5.50428 11.4959C5.16789 11.1243 5.10521 10.7416 5.10521 10.552H8.10521ZM6.6684 9.04598V6.04598C5.11277 6.04598 3.89171 6.73905 3.00923 7.72003L5.23956 9.72642L7.46989 11.7328C7.47537 11.7267 7.38804 11.8251 7.1979 11.917C6.99361 12.0158 6.79752 12.046 6.6684 12.046V9.04598ZM5.23956 9.72642L2.83392 11.5189L3.07738 11.8456L5.48302 10.0532L7.88866 8.26071L7.6452 7.93397L5.23956 9.72642ZM5.48302 10.0532L7.66486 12.1122C7.68424 12.0917 7.57715 12.2119 7.34171 12.3253C7.07944 12.4515 6.82322 12.4907 6.64487 12.4907V9.4907V6.4907C5.20738 6.4907 4.11479 7.13201 3.30118 7.99414L5.48302 10.0532ZM6.64487 9.4907V12.4907C6.22914 12.4907 5.64551 12.3282 5.18064 11.83C4.73423 11.3516 4.6498 10.8364 4.6498 10.5795H7.6498H10.6498C10.6498 9.65107 10.3652 8.59151 9.56745 7.73659C8.75125 6.86187 7.66515 6.4907 6.64487 6.4907V9.4907ZM7.6498 10.5795H4.6498C4.6498 10.3293 4.74742 9.81661 5.2059 9.36204C5.63849 8.93313 6.16368 8.78619 6.57429 8.78619V11.7862V14.7862C7.53442 14.7862 8.59736 14.4487 9.43033 13.6228C10.2892 12.7713 10.6498 11.6552 10.6498 10.5795H7.6498ZM6.57429 11.7862V8.78619H6.32305V11.7862V14.7862H6.57429V11.7862ZM6.32305 11.7862L3.35506 11.3491L3.29225 11.7756L6.26025 12.2127L9.22824 12.6498L9.29105 12.2232L6.32305 11.7862ZM6.26025 12.2127V15.2127H6.60559V12.2127V9.2127H6.26025V12.2127ZM6.60559 12.2127V15.2127C6.49605 15.2127 5.90473 15.1837 5.35424 14.6415C4.79483 14.0905 4.7834 13.5093 4.7834 13.483H7.7834H10.7834C10.7834 12.5404 10.5364 11.324 9.56473 10.3669C8.602 9.41864 7.42177 9.2127 6.60559 9.2127V12.2127ZM7.7834 13.483L4.7834 13.4823C4.78343 13.3541 4.82026 12.9319 5.19904 12.4944C5.62427 12.0032 6.18675 11.8345 6.57408 11.8345V14.8345V17.8345C7.73066 17.8345 8.8977 17.389 9.73522 16.4216C10.5263 15.5078 10.7832 14.4099 10.7834 13.4838L7.7834 13.483Z" fill="black" mask="url(#path-1-inside-1_22_314)"/>
<mask id="path-3-inside-2_22_314" fill="white">
<path d="M10.9076 15.2792C11.9753 15.2792 12.5486 14.2084 12.5486 12.1671C12.5486 10.1165 11.9833 9.04598 10.9076 9.04598C9.83208 9.04598 9.2666 10.1165 9.2666 12.1581C9.2666 14.1994 9.83188 15.2792 10.9076 15.2792ZM10.9076 9.48125C11.6613 9.48125 12.0697 10.3069 12.0697 12.1668C12.0697 14.0268 11.6613 14.8434 10.9076 14.8434C10.1539 14.8434 9.73777 14.0178 9.73777 12.1579C9.73777 10.2979 10.1617 9.48125 10.9076 9.48125Z"/>
</mask>
<path d="M10.9076 15.2792C11.9753 15.2792 12.5486 14.2084 12.5486 12.1671C12.5486 10.1165 11.9833 9.04598 10.9076 9.04598C9.83208 9.04598 9.2666 10.1165 9.2666 12.1581C9.2666 14.1994 9.83188 15.2792 10.9076 15.2792ZM10.9076 9.48125C11.6613 9.48125 12.0697 10.3069 12.0697 12.1668C12.0697 14.0268 11.6613 14.8434 10.9076 14.8434C10.1539 14.8434 9.73777 14.0178 9.73777 12.1579C9.73777 10.2979 10.1617 9.48125 10.9076 9.48125Z" fill="black"/>
<path d="M9.73777 12.1579H6.73777H9.73777ZM10.9076 15.2792V18.2792C12.705 18.2792 14.0585 17.2549 14.7799 15.8922C15.3925 14.735 15.5486 13.3814 15.5486 12.1671H12.5486H9.54859C9.54859 12.5444 9.52153 12.8084 9.4907 12.978C9.45867 13.1542 9.43368 13.167 9.47707 13.0851C9.52606 12.9925 9.67256 12.7638 9.98165 12.5632C10.3073 12.352 10.649 12.2792 10.9076 12.2792V15.2792ZM12.5486 12.1671H15.5486C15.5486 10.9556 15.3964 9.5996 14.7862 8.44026C14.063 7.06628 12.7046 6.04598 10.9076 6.04598V9.04598V12.046C10.6553 12.046 10.3141 11.9754 9.98607 11.7627C9.67409 11.5605 9.52625 11.3289 9.47677 11.2349C9.4332 11.1521 9.45849 11.1653 9.49069 11.3446C9.52165 11.517 9.54859 11.7847 9.54859 12.1671H12.5486ZM10.9076 9.04598V6.04598C9.11175 6.04598 7.75392 7.06509 7.03035 8.43669C6.41925 9.59512 6.2666 10.9493 6.2666 12.1581H9.2666H12.2666C12.2666 11.7787 12.2935 11.5132 12.3242 11.3426C12.3562 11.1651 12.3811 11.153 12.3372 11.2362C12.2874 11.3306 12.1394 11.5617 11.828 11.7633C11.5006 11.9753 11.16 12.046 10.9076 12.046V9.04598ZM9.2666 12.1581H6.2666C6.2666 13.3674 6.41946 14.7209 7.02772 15.879C7.74594 17.2466 9.10063 18.2792 10.9076 18.2792V15.2792V12.2792C11.165 12.2792 11.508 12.3518 11.8354 12.5652C12.1458 12.7675 12.2917 12.9978 12.3397 13.0892C12.3821 13.17 12.3566 13.1552 12.3244 12.9761C12.2934 12.8039 12.2666 12.5374 12.2666 12.1581H9.2666ZM10.9076 9.48125V12.4812C10.5109 12.4812 10.0408 12.3594 9.62584 12.0532C9.2454 11.7725 9.08293 11.4637 9.03269 11.3514C8.9846 11.2439 9.00185 11.2356 9.02626 11.4008C9.04923 11.5564 9.06965 11.8039 9.06965 12.1668H12.0697H15.0697C15.0697 11.1137 14.9689 9.92803 14.5098 8.9017C14.2633 8.35048 13.8574 7.71906 13.1884 7.2254C12.485 6.70629 11.6812 6.48125 10.9076 6.48125V9.48125ZM12.0697 12.1668H9.06965C9.06965 12.5299 9.04922 12.7764 9.02642 12.9304C9.00218 13.0941 8.9854 13.083 9.03504 12.9725C9.08723 12.8565 9.2523 12.5463 9.635 12.2661C10.0509 11.9617 10.5182 11.8434 10.9076 11.8434V14.8434V17.8434C11.6738 17.8434 12.4748 17.6231 13.1793 17.1074C13.8505 16.616 14.259 15.9855 14.5075 15.4327C14.9692 14.4056 15.0697 13.2188 15.0697 12.1668H12.0697ZM10.9076 14.8434V11.8434C11.3039 11.8434 11.7707 11.965 12.1823 12.2672C12.5603 12.5447 12.7231 12.8503 12.7741 12.9632C12.8229 13.0712 12.8059 13.0806 12.7814 12.9176C12.7584 12.7641 12.7378 12.5186 12.7378 12.1579H9.73777H6.73777C6.73777 13.2163 6.84146 14.4046 7.30601 15.4331C7.55526 15.9849 7.96338 16.6131 8.63136 17.1036C9.33299 17.6187 10.1344 17.8434 10.9076 17.8434V14.8434ZM9.73777 12.1579H12.7378C12.7378 11.7993 12.7587 11.5563 12.7816 11.4058C12.8059 11.246 12.8223 11.2576 12.7723 11.3673C12.72 11.482 12.5561 11.7856 12.1793 12.0607C11.7699 12.3597 11.3051 12.4812 10.9076 12.4812V9.48125V6.48125C10.1371 6.48125 9.33966 6.70487 8.6409 7.21513C7.97491 7.70147 7.56516 8.32544 7.3136 8.87683C6.84438 9.90528 6.73777 11.0941 6.73777 12.1579H9.73777Z" fill="black" mask="url(#path-3-inside-2_22_314)"/>
<mask id="path-5-inside-3_22_314" fill="white">
<path d="M15.9304 18L18 0.0626536L17.5945 0L16.8339 6.5928C16.4691 6.4675 16.236 6.1495 15.9775 5.79084C15.6292 5.30758 15.2346 4.76001 14.457 4.76001C13.6793 4.76001 13.2847 5.30758 12.9363 5.79084C12.6034 6.25258 12.316 6.65144 11.73 6.65144C11.1439 6.65144 10.8562 6.25258 10.5232 5.79084C10.1747 5.30758 9.77989 4.76001 9.00184 4.76001C8.22421 4.76001 7.82935 5.30758 7.48094 5.79084C7.14808 6.25258 6.86063 6.65144 6.27469 6.65144C5.68814 6.65144 5.40049 6.25258 5.06722 5.7906C4.7186 5.30758 4.32354 4.76001 3.5455 4.76001C2.76745 4.76001 2.37239 5.30758 2.02378 5.7906C1.76497 6.1495 1.53154 6.46773 1.16594 6.59304L0.405492 0.000236524L0 0.0628901L2.06961 18H15.9304ZM2.33823 6.09347C2.6713 5.63172 2.95915 5.23287 3.5455 5.23287C4.13185 5.23287 4.4197 5.63172 4.75277 6.09347C5.10138 6.57649 5.49644 7.1243 6.27449 7.1243C7.05213 7.1243 7.44677 6.57673 7.79519 6.09347C8.12805 5.63172 8.4157 5.23287 9.00164 5.23287C9.58778 5.23287 9.87543 5.63172 10.2085 6.09347C10.5569 6.57649 10.9518 7.1243 11.7296 7.1243C12.5072 7.1243 12.9021 6.57673 13.2505 6.09347C13.5836 5.63172 13.8712 5.23287 14.457 5.23287C15.0427 5.23287 15.3303 5.63172 15.663 6.09347C15.9443 6.48381 16.26 6.91127 16.7796 7.06306L15.5724 17.5271H2.42763L1.22036 7.0633C1.74063 6.91175 2.05651 6.48405 2.33823 6.09347Z"/>
</mask>
<path d="M15.9304 18L18 0.0626536L17.5945 0L16.8339 6.5928C16.4691 6.4675 16.236 6.1495 15.9775 5.79084C15.6292 5.30758 15.2346 4.76001 14.457 4.76001C13.6793 4.76001 13.2847 5.30758 12.9363 5.79084C12.6034 6.25258 12.316 6.65144 11.73 6.65144C11.1439 6.65144 10.8562 6.25258 10.5232 5.79084C10.1747 5.30758 9.77989 4.76001 9.00184 4.76001C8.22421 4.76001 7.82935 5.30758 7.48094 5.79084C7.14808 6.25258 6.86063 6.65144 6.27469 6.65144C5.68814 6.65144 5.40049 6.25258 5.06722 5.7906C4.7186 5.30758 4.32354 4.76001 3.5455 4.76001C2.76745 4.76001 2.37239 5.30758 2.02378 5.7906C1.76497 6.1495 1.53154 6.46773 1.16594 6.59304L0.405492 0.000236524L0 0.0628901L2.06961 18H15.9304ZM2.33823 6.09347C2.6713 5.63172 2.95915 5.23287 3.5455 5.23287C4.13185 5.23287 4.4197 5.63172 4.75277 6.09347C5.10138 6.57649 5.49644 7.1243 6.27449 7.1243C7.05213 7.1243 7.44677 6.57673 7.79519 6.09347C8.12805 5.63172 8.4157 5.23287 9.00164 5.23287C9.58778 5.23287 9.87543 5.63172 10.2085 6.09347C10.5569 6.57649 10.9518 7.1243 11.7296 7.1243C12.5072 7.1243 12.9021 6.57673 13.2505 6.09347C13.5836 5.63172 13.8712 5.23287 14.457 5.23287C15.0427 5.23287 15.3303 5.63172 15.663 6.09347C15.9443 6.48381 16.26 6.91127 16.7796 7.06306L15.5724 17.5271H2.42763L1.22036 7.0633C1.74063 6.91175 2.05651 6.48405 2.33823 6.09347Z" fill="black"/>
<path d="M15.9304 18V21H18.6042L18.9106 18.3439L15.9304 18ZM18 0.0626536L20.9802 0.406511L21.3111 -2.46134L18.4581 -2.90216L18 0.0626536ZM17.5945 0L18.0526 -2.96482L14.9716 -3.44087L14.6143 -0.343849L17.5945 0ZM16.8339 6.5928L15.8592 9.43007L19.3866 10.6418L19.8141 6.93665L16.8339 6.5928ZM15.9775 5.79084L13.5435 7.54462L13.544 7.54537L15.9775 5.79084ZM12.9363 5.79084L10.5028 4.03638L10.5027 4.03651L12.9363 5.79084ZM10.5232 5.79084L8.08966 7.5453L8.09008 7.54588L10.5232 5.79084ZM7.48094 5.79084L5.04745 4.03638L5.04736 4.03651L7.48094 5.79084ZM5.06722 5.7906L7.50021 4.03545L7.49981 4.0349L5.06722 5.7906ZM2.02378 5.7906L-0.408818 4.0349L-0.409551 4.03592L2.02378 5.7906ZM1.16594 6.59304L-1.8143 6.9368L-1.38721 10.6394L2.13863 9.43097L1.16594 6.59304ZM0.405492 0.000236524L3.38573 -0.343521L3.02849 -3.44065L-0.0526092 -2.96458L0.405492 0.000236524ZM0 0.0628901L-0.458101 -2.90193L-3.31112 -2.4611L-2.98023 0.406752L0 0.0628901ZM2.06961 18L-0.910623 18.3439L-0.604154 21H2.06961V18ZM2.33823 6.09347L-0.0948444 4.33843L-0.0948986 4.33851L2.33823 6.09347ZM4.75277 6.09347L2.31969 7.84851L2.32017 7.84917L4.75277 6.09347ZM7.79519 6.09347L10.2287 7.84792L10.2288 7.8478L7.79519 6.09347ZM10.2085 6.09347L12.6416 4.33845L12.6416 4.33843L10.2085 6.09347ZM13.2505 6.09347L10.8174 4.33843L10.817 4.33901L13.2505 6.09347ZM15.663 6.09347L13.2289 7.84709L13.2292 7.84745L15.663 6.09347ZM16.7796 7.06306L19.7599 7.4069L20.0499 4.89293L17.6208 4.18339L16.7796 7.06306ZM15.5724 17.5271V20.5271H18.2461L18.5526 17.871L15.5724 17.5271ZM2.42763 17.5271L-0.552597 17.871L-0.246142 20.5271H2.42763V17.5271ZM1.22036 7.0633L0.381351 4.18301L-2.05013 4.89129L-1.75987 7.40714L1.22036 7.0633ZM15.9304 18L18.9106 18.3439L20.9802 0.406511L18 0.0626536L15.0198 -0.281204L12.9502 17.6561L15.9304 18ZM18 0.0626536L18.4581 -2.90216L18.0526 -2.96482L17.5945 0L17.1364 2.96482L17.5419 3.02747L18 0.0626536ZM17.5945 0L14.6143 -0.343849L13.8536 6.24896L16.8339 6.5928L19.8141 6.93665L20.5747 0.343849L17.5945 0ZM16.8339 6.5928L17.8085 3.75554C18.2038 3.89133 18.4387 4.10779 18.5163 4.18753C18.5514 4.22364 18.5609 4.23866 18.5375 4.20851C18.5117 4.17526 18.4787 4.1304 18.4109 4.03631L15.9775 5.79084L13.544 7.54537C13.6729 7.72414 14.4338 8.94041 15.8592 9.43007L16.8339 6.5928ZM15.9775 5.79084L18.4114 4.03706C18.182 3.71866 16.9585 1.76001 14.457 1.76001V4.76001V7.76001C14.2876 7.76001 14.0896 7.72802 13.8886 7.65004C13.6934 7.57431 13.5536 7.47795 13.4702 7.40927C13.3934 7.34592 13.3637 7.30525 13.3853 7.33157C13.4126 7.36474 13.4477 7.41174 13.5435 7.54462L15.9775 5.79084ZM14.457 4.76001V1.76001C11.9556 1.76001 10.7319 3.71862 10.5028 4.03638L12.9363 5.79084L15.3698 7.5453C15.4657 7.41225 15.5008 7.3652 15.5282 7.3319C15.5499 7.30548 15.5203 7.34608 15.4435 7.40937C15.3603 7.47799 15.2205 7.57433 15.0253 7.65005C14.8243 7.72802 14.6263 7.76001 14.457 7.76001V4.76001ZM12.9363 5.79084L10.5027 4.03651C10.4091 4.16627 10.3789 4.20668 10.3589 4.23145C10.344 4.24978 10.3916 4.18732 10.4942 4.10078C10.6061 4.00643 10.7849 3.88193 11.0302 3.7864C11.2809 3.68879 11.5241 3.65144 11.73 3.65144V6.65144V9.65144C14.0673 9.65144 15.1978 7.78385 15.3698 7.54517L12.9363 5.79084ZM11.73 6.65144V3.65144C11.9358 3.65144 12.1788 3.68874 12.4292 3.78623C12.6744 3.88166 12.8531 4.00601 12.9649 4.10025C13.0675 4.1867 13.115 4.24909 13.1001 4.23074C13.08 4.20597 13.0498 4.16553 12.9562 4.0358L10.5232 5.79084L8.09008 7.54588C8.26257 7.78501 9.39326 9.65144 11.73 9.65144V6.65144ZM10.5232 5.79084L12.9566 4.03638C12.7268 3.71755 11.5031 1.76001 9.00184 1.76001V4.76001V7.76001C8.83281 7.76001 8.63508 7.72809 8.43428 7.65023C8.23925 7.57462 8.09951 7.47838 8.01622 7.40977C7.93939 7.34649 7.90974 7.30587 7.93141 7.33219C7.95872 7.36539 7.99385 7.4124 8.08966 7.5453L10.5232 5.79084ZM9.00184 4.76001V1.76001C6.50076 1.76001 5.27693 3.71809 5.04745 4.03638L7.48094 5.79084L9.91443 7.5453C10.0102 7.4124 10.0454 7.36535 10.0727 7.33212C10.0944 7.30574 10.0648 7.34632 9.98807 7.40957C9.90484 7.47814 9.76509 7.57442 9.57 7.65009C9.3691 7.72802 9.17118 7.76001 9.00184 7.76001V4.76001ZM7.48094 5.79084L5.04736 4.03651C4.95382 4.16627 4.92363 4.20668 4.90356 4.23145C4.88871 4.24978 4.93623 4.18731 5.03887 4.10078C5.15076 4.00643 5.32958 3.88193 5.57491 3.7864C5.82556 3.68879 6.06874 3.65144 6.27469 3.65144V6.65144V9.65144C8.61199 9.65144 9.74246 7.78385 9.91452 7.54517L7.48094 5.79084ZM6.27469 6.65144V3.65144C6.4801 3.65144 6.72287 3.68865 6.97324 3.78606C7.21833 3.88142 7.39706 4.00573 7.50896 4.10001C7.61158 4.18648 7.6591 4.24889 7.64421 4.23053C7.6241 4.20573 7.59386 4.16527 7.50021 4.03545L5.06722 5.7906L2.63423 7.54576C2.80721 7.78554 3.93781 9.65144 6.27469 9.65144V6.65144ZM5.06722 5.7906L7.49981 4.0349C7.27022 3.7168 6.04602 1.76001 3.5455 1.76001V4.76001V7.76001C3.37646 7.76001 3.17883 7.72809 2.97817 7.65031C2.7833 7.57477 2.64369 7.47865 2.56053 7.41018C2.48384 7.34703 2.45428 7.30654 2.47604 7.33297C2.50347 7.36628 2.53865 7.41332 2.63462 7.5463L5.06722 5.7906ZM3.5455 4.76001V1.76001C1.04498 1.76001 -0.179226 3.7168 -0.408817 4.0349L2.02378 5.7906L4.45637 7.5463C4.55235 7.41332 4.58752 7.36628 4.61496 7.33297C4.63672 7.30654 4.60716 7.34703 4.53046 7.41018C4.44731 7.47865 4.3077 7.57477 4.11283 7.65031C3.91217 7.72809 3.71453 7.76001 3.5455 7.76001V4.76001ZM2.02378 5.7906L-0.409551 4.03592C-0.477309 4.12989 -0.510211 4.17469 -0.535956 4.20778C-0.559309 4.2378 -0.549665 4.22268 -0.514418 4.18648C-0.436485 4.10645 -0.201564 3.89043 0.193253 3.75511L1.16594 6.59304L2.13863 9.43097C3.56569 8.94186 4.32703 7.72568 4.45711 7.54529L2.02378 5.7906ZM1.16594 6.59304L4.14618 6.24928L3.38573 -0.343521L0.405492 0.000236524L-2.57475 0.343994L-1.8143 6.9368L1.16594 6.59304ZM0.405492 0.000236524L-0.0526092 -2.96458L-0.458101 -2.90193L0 0.0628901L0.458101 3.02771L0.863593 2.96505L0.405492 0.000236524ZM0 0.0628901L-2.98023 0.406752L-0.910623 18.3439L2.06961 18L5.04983 17.6561L2.98023 -0.280972L0 0.0628901ZM2.06961 18V21H15.9304V18V15H2.06961V18ZM2.33823 6.09347L4.7713 7.84851C4.86476 7.71893 4.89497 7.67853 4.91498 7.65387C4.92978 7.63562 4.88225 7.69801 4.77965 7.78444C4.6678 7.87866 4.48915 8.0029 4.24416 8.09823C3.99387 8.19561 3.75108 8.23287 3.5455 8.23287V5.23287V2.23287C1.20903 2.23287 0.0784002 4.09825 -0.0948444 4.33843L2.33823 6.09347ZM3.5455 5.23287V8.23287C3.33991 8.23287 3.09713 8.19561 2.84684 8.09823C2.60184 8.0029 2.42319 7.87866 2.31134 7.78444C2.20874 7.69801 2.16122 7.63562 2.17602 7.65387C2.19602 7.67853 2.22623 7.71893 2.31969 7.84851L4.75277 6.09347L7.18584 4.33843C7.0126 4.09826 5.88197 2.23287 3.5455 2.23287V5.23287ZM4.75277 6.09347L2.32017 7.84917C2.54923 8.16653 3.7736 10.1243 6.27449 10.1243V7.1243V4.1243C6.44369 4.1243 6.64145 4.15626 6.84217 4.2341C7.03709 4.30969 7.17669 4.40585 7.25979 4.47429C7.33644 4.53741 7.36594 4.57785 7.34412 4.55135C7.31661 4.51794 7.28142 4.47086 7.18536 4.33777L4.75277 6.09347ZM6.27449 7.1243V10.1243C8.77583 10.1243 9.99958 8.16568 10.2287 7.84792L7.79519 6.09347L5.36169 4.33901C5.26578 4.47205 5.23063 4.51911 5.20323 4.55241C5.1815 4.57882 5.21111 4.53823 5.28792 4.47494C5.37118 4.40632 5.51099 4.30998 5.70618 4.23426C5.90717 4.15629 6.10515 4.1243 6.27449 4.1243V7.1243ZM7.79519 6.09347L10.2288 7.8478C10.3222 7.7182 10.3524 7.6778 10.3724 7.65312C10.3872 7.63485 10.3397 7.69729 10.2371 7.78379C10.1252 7.87808 9.94645 8.0025 9.70123 8.09797C9.45069 8.19552 9.20759 8.23287 9.00164 8.23287V5.23287V2.23287C6.66466 2.23287 5.53417 4.09976 5.3616 4.33914L7.79519 6.09347ZM9.00164 5.23287V8.23287C8.79587 8.23287 8.55289 8.19557 8.30243 8.09808C8.05728 8.00265 7.87858 7.8783 7.76674 7.78405C7.66416 7.69761 7.61666 7.63522 7.63154 7.65356C7.65163 7.67834 7.68185 7.71878 7.77543 7.84851L10.2085 6.09347L12.6416 4.33843C12.4691 4.0993 11.3384 2.23287 9.00164 2.23287V5.23287ZM10.2085 6.09347L7.77541 7.84849C8.00421 8.16569 9.22833 10.1243 11.7296 10.1243V7.1243V4.1243C11.899 4.1243 12.0969 4.1563 12.2978 4.23423C12.4928 4.3099 12.6325 4.40616 12.7157 4.47469C12.7924 4.53789 12.822 4.57841 12.8002 4.55194C12.7727 4.51858 12.7376 4.47153 12.6416 4.33845L10.2085 6.09347ZM11.7296 7.1243V10.1243C14.2307 10.1243 15.4545 8.16622 15.684 7.84792L13.2505 6.09347L10.817 4.33901C10.7212 4.4719 10.6861 4.51895 10.6587 4.55219C10.637 4.57856 10.6666 4.53799 10.7434 4.47474C10.8266 4.40617 10.9664 4.30989 11.1614 4.23421C11.3623 4.15629 11.5603 4.1243 11.7296 4.1243V7.1243ZM13.2505 6.09347L15.6836 7.84851C15.7771 7.71878 15.8074 7.6783 15.8275 7.65347C15.8425 7.63507 15.795 7.69739 15.6925 7.78379C15.5808 7.87798 15.4021 8.00239 15.1569 8.09789C14.9063 8.19547 14.6631 8.23287 14.457 8.23287V5.23287V2.23287C12.1203 2.23287 10.9894 4.1 10.8174 4.33843L13.2505 6.09347ZM14.457 5.23287V8.23287C14.2508 8.23287 14.0076 8.19548 13.757 8.09787C13.5117 8.00234 13.3329 7.87787 13.221 7.78353C13.1184 7.69698 13.0708 7.63449 13.0856 7.65268C13.1055 7.67725 13.1356 7.71763 13.2289 7.84709L15.663 6.09347L18.0971 4.33985C17.9245 4.10021 16.7941 2.23287 14.457 2.23287V5.23287ZM15.663 6.09347L13.2292 7.84745C13.4236 8.11728 14.2864 9.46016 15.9385 9.94273L16.7796 7.06306L17.6208 4.18339C17.958 4.2819 18.1615 4.45655 18.2267 4.52013C18.2551 4.54792 18.2588 4.55591 18.2327 4.52302C18.2038 4.48659 18.1681 4.43841 18.0968 4.33948L15.663 6.09347ZM16.7796 7.06306L13.7994 6.71922L12.5921 17.1833L15.5724 17.5271L18.5526 17.871L19.7599 7.4069L16.7796 7.06306ZM15.5724 17.5271V14.5271H2.42763V17.5271V20.5271H15.5724V17.5271ZM2.42763 17.5271L5.40786 17.1833L4.20059 6.71945L1.22036 7.0633L-1.75987 7.40714L-0.552597 17.871L2.42763 17.5271ZM1.22036 7.0633L2.05938 9.94358C3.71329 9.46181 4.57717 8.11765 4.77136 7.84843L2.33823 6.09347L-0.0948986 4.33851C-0.166444 4.4377 -0.202171 4.48595 -0.231218 4.52252C-0.257424 4.55551 -0.253779 4.54753 -0.22526 4.51974C-0.159921 4.45605 0.0438144 4.28133 0.381351 4.18301L1.22036 7.0633Z" fill="black" mask="url(#path-5-inside-3_22_314)"/>
</svg>
